:SAMPLES-PER-SECOND 30
:FULLY-SPECIFIED
:DEGREES
84
root  13.4653 37.5096 -8.77847 -100.988 -84.0595 97.4382
RightUpLeg  -19.1912 3.913 -14.4064
RightLeg  75.4986 -2.6317 -12.7878
RightFoot  1.69933 0.144887 -1.14961
RightToes  1.74622e-010 0 -3.6325e-017
Spine  12.6472 0.504994 -6.23234
Spine1  7.42004 0.109807 -1.08303
HEad  -21.5162 -1.42189 1.71026
LeftShoulder1  8.64362 -11.95 -48.8243
LeftArm  -7.14219 18.2987 -24.2741
LeftForeArm  172.531 -66.0899 -158.208
LeftHand  -0.244104 0.0205437 5.32207
RightShoulder  7.25186 10.3918 45.601
RightArm  2.1205 -25.6362 32.9507
RightForeArm  144.228 77.1105 132.89
RightHand  -0.0534241 -12.8191 -0.25622
LeftUpLeg  -8.82413 11.399 -13.5413
LeftLeg  35.3087 7.57107 6.1015
LeftFoot  -24.0223 0.713422 5.09499
LeftToes  -6.36679e-011 4.33698e-011 -8.22343e-012
85
root  10.9861 38.1655 -8.5301 -127.792 -86.5807 124.869
RightUpLeg  -22.6984 2.63069 -10.3423
RightLeg  69.0246 -4.13779 -12.5838
RightFoot  -0.717348 0.0284121 -0.338642
RightToes  1.74622e-010 0 -3.6325e-017
Spine  11.3402 -1.21238 -5.21674
Spine1  6.91514 -2.49105 2.61238
HEad  -20.4732 2.334 -1.27613
LeftShoulder1  8.37917 -11.7876 -47.8203
LeftArm  -5.74516 18.7671 -27.2851
LeftForeArm  175.449 -63.5843 -160.707
LeftHand  -0.244104 0.0205437 5.32207
RightShoulder  6.61184 9.84747 43.1452
RightArm  4.75096 -33.0905 28.8654
RightForeArm  143.175 74.3938 140.767
RightHand  0.0448347 -12.6105 -1.86465
LeftUpLeg  -2.41463 11.6748 -9.77515
LeftLeg  29.6189 7.60853 5.01188
LeftFoot  -23.2228 0.571783 4.15817
LeftToes  -6.36679e-011 4.33698e-011 -8.22343e-012
86
root  8.38193 39.0771 -8.29571 171.993 -87.4409 -173.958
RightUpLeg  -23.9678 0.720503 -5.21985
RightLeg  57.8346 -5.79086 -10.3442
RightFoot  -2.98692 -0.103677 1.14099
RightToes  1.74622e-010 0 -3.6325e-017
Spine  9.59798 -2.96117 -3.38794
Spine1  6.19496 -4.89229 5.87837
HEad  -18.9434 6.38224 -4.7407
LeftShoulder1  7.99494 -11.4325 -46.6916
LeftArm  -3.27947 19.8336 -30.1617
LeftForeArm  176.322 -60.5418 -163.052
LeftHand  -0.244104 0.0205437 5.32207
RightShoulder  5.72914 9.13531 39.2288
RightArm  11.6159 -39.2105 22.5975
RightForeArm  139.077 69.5363 149.927
RightHand  0.176993 -10.9243 -4.72147
LeftUpLeg  3.92051 12.4703 -5.41688
LeftLeg  23.0454 6.74081 3.49419
LeftFoot  -19.151 0.245541 1.70781
LeftToes  -6.36679e-011 4.33698e-011 -8.22343e-012
87
root  5.7054 39.9637 -8.15835 147.282 -85.4 -147.882
RightUpLeg  -23.9402 -1.75724 -0.825858
RightLeg  43.3582 -6.35363 -6.70018
RightFoot  -4.25335 -0.195938 2.66613
RightToes  1.74622e-010 0 -3.6325e-017
Spine  6.81341 -4.05269 -1.86861
Spine1  6.03942 -6.2007 7.30327
HEad  -16.3614 9.48749 -6.65936
LeftShoulder1  7.69306 -11.2175 -45.5514
LeftArm  0.342187 19.4089 -31.2786
LeftForeArm  176.553 -58.8305 -164.141
LeftHand  -0.244104 0.0205437 5.32207
RightShoulder  5.18069 8.91877 35.7492
RightArm  16.3496 -44.3754 17.4882
RightForeArm  139.288 65.8972 154.713
RightHand  0.195892 -10.4446 -5.57766
LeftUpLeg  8.89916 15.0894 -1.56002
LeftLeg  17.7042 4.48467 1.33426
LeftFoot  -11.5434 0.0758692 -2.11209
LeftToes  -6.36679e-011 4.33698e-011 -8.22343e-012
88
root  3.06818 40.5696 -8.07016 153.767 -83.6186 -153.162
RightUpLeg  -23.1321 -5.6091 2.93429
RightLeg  28.5211 -4.97601 -3.3431
RightFoot  -5.03929 -0.241693 3.77658
RightToes  1.74622e-010 0 -3.6325e-017
Spine  4.15176 -4.36601 -0.300324
Spine1  6.12365 -6.25087 6.64165
HEad  -13.1608 11.1261 -6.27163
LeftShoulder1  7.49202 -11.2347 -44.2578
LeftArm  4.168 17.3673 -31.2009
LeftForeArm  178.819 -57.7492 -164.953
LeftHand  -0.244104 0.0205437 5.32207
RightShoulder  5.15824 9.54016 33.6028
RightArm  16.1634 -49.9095 15.4449
RightForeArm  145.754 63.9103 157.401
RightHand  0.172058 -11.5087 -4.27939
LeftUpLeg  11.7214 17.2407 0.798057
LeftLeg  16.1153 3.05731 -0.193334
LeftFoot  -2.15509 0.382475 -4.75316
LeftToes  -6.36679e-011 4.33698e-011 -8.22343e-012
89
root  0.569144 40.7626 -7.98537 159.583 -82.6687 -158.859
RightUpLeg  -21.2393 -9.30949 5.58134
RightLeg  16.4655 -3.48906 -0.451375
RightFoot  -7.08752 -0.234197 5.08931
RightToes  1.74622e-010 0 -3.6325e-017
Spine  3.48413 -4.34353 1.16925
Spine1  6.00355 -5.76642 5.17207
HEad  -11.1191 11.5127 -4.84559
LeftShoulder1  7.36812 -11.3822 -43.0325
LeftArm  7.04922 14.1939 -30.8119
LeftForeArm  -178.117 -56.715 -165.768
LeftHand  -0.244104 0.0205437 5.32207
RightShoulder  5.24615 10.2078 32.3161
RightArm  12.5081 -54.3423 17.0009
RightForeArm  148.966 62.9717 158.569
RightHand  0.168265 -11.9 -4.01302
LeftUpLeg  12.4717 19.0804 1.49146
LeftLeg  19.9729 0.722488 0.681948
LeftFoot  3.783 0.748645 -5.84378
LeftToes  -6.36679e-011 4.33698e-011 -8.22343e-012
